<?xml version="1.0" standalone="no"?>
<!DOCTYPE svg PUBLIC "-//W3C//DTD SVG 20010904//EN"
 "http://www.w3.org/TR/2001/REC-SVG-20010904/DTD/svg10.dtd">
<svg version="1.0" xmlns="http://www.w3.org/2000/svg"
 width="1024.000000pt" height="1024.000000pt" viewBox="0 0 1024.000000 1024.000000"
 preserveAspectRatio="xMidYMid meet">
<metadata>
Created by potrace 1.14, written by Peter Selinger 2001-2017
</metadata>
<g transform="translate(0.000000,1024.000000) scale(0.100000,-0.100000)"
fill="#000000" stroke="none">
<path d="M10 10233 c0 -5 -1 -2306 -3 -5115 l-2 -5108 5113 0 5112 0 0 5115 0
5115 -5110 0 c-2811 0 -5110 -3 -5110 -7z m5676 -871 c83 -166 113 -317 95
-472 -12 -95 -76 -418 -85 -427 -9 -9 -27 48 -33 104 -4 33 -13 59 -24 69 -36
33 -44 -17 -44 -296 -1 -199 -4 -270 -17 -325 -29 -124 -41 -274 -40 -515 0
-203 7 -344 37 -775 8 -108 -10 -407 -34 -563 -20 -131 -61 -314 -85 -386 -72
-209 -219 -484 -350 -651 -93 -120 -228 -236 -321 -279 -22 -10 -44 -21 -50
-24 -30 -16 38 45 80 72 127 82 248 216 344 381 158 272 217 404 261 580 50
198 63 324 62 610 0 227 -3 283 -26 440 -30 206 -31 263 -11 395 25 161 17
224 -21 173 -7 -10 -14 -16 -17 -13 -2 3 -14 111 -26 240 -31 342 -26 387 114
1065 37 183 58 314 65 405 12 151 27 277 36 292 13 20 51 -21 90 -100z m-328
-856 c-4 -65 -18 -118 -67 -265 -122 -361 -141 -494 -105 -731 42 -280 8 -620
-98 -975 -36 -120 -57 -158 -144 -260 -135 -160 -147 -200 -115 -368 12 -60
19 -119 16 -133 -3 -13 -7 -35 -10 -49 -15 -72 -188 -199 -454 -332 -101 -51
-191 -93 -201 -93 -10 0 -34 -7 -53 -15 -20 -8 -44 -15 -54 -15 -10 0 77 49
193 108 289 149 447 254 487 325 21 40 22 118 1 212 -26 117 -27 139 -10 205
17 67 65 145 145 240 66 77 52 34 169 535 l46 200 -2 320 c-4 442 1 472 125
780 71 173 100 271 110 366 9 92 27 46 21 -55z m469 -2718 c68 -70 164 -175
198 -216 75 -90 353 -343 480 -437 79 -59 207 -174 257 -232 77 -88 133 -174
217 -338 76 -147 183 -291 256 -343 44 -32 95 -87 95 -104 0 -7 -4 -7 -12 -1
-7 5 -50 38 -96 72 -115 87 -214 209 -312 386 -84 152 -154 231 -370 419 -230
200 -443 418 -603 615 -18 22 -60 74 -94 116 -67 81 -89 115 -75 115 5 0 31
-24 59 -52z m-2324 -402 c48 -14 165 -85 166 -100 1 -4 -7 -5 -16 -1 -10 4
-56 18 -103 32 -191 54 -309 4 -380 -162 -25 -59 -28 -206 -4 -263 19 -47 68
-98 117 -123 52 -27 46 -41 -10 -22 -69 23 -118 69 -155 143 -30 60 -33 72
-33 165 0 89 3 107 28 160 31 66 75 118 122 143 81 42 185 53 268 28z m2207
-212 c69 -35 147 -84 195 -124 118 -97 148 -116 276 -165 153 -60 224 -98 304
-166 11 -10 63 -52 115 -94 111 -89 124 -105 170 -205 19 -41 35 -76 36 -78 5
-10 34 13 34 27 0 10 3 20 6 23 3 3 56 -44 118 -106 177 -176 249 -317 250
-496 1 -85 -2 -101 -27 -150 -57 -110 -127 -159 -243 -167 -54 -4 -78 -1 -102
11 -32 17 -32 17 -16 47 9 17 32 50 53 73 78 86 81 93 81 172 0 41 3 74 8 74
4 0 25 -12 47 -25 51 -31 65 -31 65 0 0 18 -23 50 -78 108 -54 55 -91 106
-117 157 -68 137 -145 234 -389 493 l-149 159 -171 83 c-141 69 -184 95 -243
149 -69 62 -166 138 -188 147 -5 2 -48 29 -95 60 -47 30 -115 72 -152 93 -38
20 -68 41 -68 46 0 5 37 -12 83 -39 45 -26 134 -74 197 -107z m-1911 -213
c-52 -70 -243 -295 -296 -348 -19 -18 -77 -54 -131 -79 -53 -26 -150 -79 -215
-118 -65 -39 -137 -82 -160 -96 -24 -13 -61 -25 -86 -27 -55 -3 -70 -16 -53
-44 8 -12 12 -22 10 -23 -10 -7 -101 -58 -148 -82 -50 -26 -52 -29 -28 -32 14
-2 75 11 135 28 360 104 582 211 968 469 74 49 135 88 135 86 0 -19 -267 -237
-375 -307 -95 -61 -221 -133 -275 -157 -136 -60 -584 -154 -913 -191 -49 -6
-104 -17 -124 -25 -19 -8 -48 -15 -63 -15 -24 0 -29 5 -34 35 -18 93 52 188
160 218 33 9 75 17 93 17 l32 0 -25 -33 c-30 -39 -34 -67 -8 -66 17 0 50 21
113 70 21 17 72 37 130 53 120 32 191 59 344 129 127 58 295 130 357 152 73
27 165 100 313 251 83 84 152 153 154 153 2 1 -3 -7 -10 -18z m-669 -1084
c163 -129 378 -332 366 -344 -10 -10 -216 159 -346 282 -175 166 -183 192 -20
62z m-595 -145 c94 -65 151 -111 260 -207 44 -39 131 -115 192 -168 62 -53
110 -97 107 -97 -8 0 -150 103 -354 256 -182 137 -310 250 -310 272 0 16 2 15
105 -56z m179 -24 c150 -110 531 -436 521 -446 -7 -7 -139 84 -235 162 -74 60
-370 326 -370 332 0 10 19 -1 84 -48z m4078 -80 c-6 -6 -53 -15 -104 -19 -106
-9 -2766 -25 -2758 -16 3 3 177 10 387 17 904 29 2497 40 2475 18z m1973 -12
c209 -9 394 -18 410 -19 17 -2 -150 -4 -370 -5 -500 -1 -1472 14 -1502 23 -13
4 -23 12 -23 18 0 14 1009 3 1485 -17z m-6129 -370 c-25 -31 -50 -65 -57 -77
l-11 -22 593 7 c546 6 970 -1 986 -17 3 -4 3 -10 0 -13 -4 -4 -332 -9 -729
-11 -661 -5 -865 0 -885 21 -3 3 3 16 14 29 35 45 128 145 131 142 2 -2 -17
-28 -42 -59z m-696 -571 c40 -21 60 -53 60 -98 0 -76 -50 -127 -125 -127 -98
0 -156 91 -112 177 29 56 116 79 177 48z m490 -57 c0 -13 1 -278 3 -591 l2
-567 -97 0 -98 0 0 590 0 590 95 0 c92 0 95 -1 95 -22z m6714 -48 c192 -49
338 -180 404 -362 23 -63 26 -89 27 -193 0 -101 -4 -131 -23 -185 -64 -178
-195 -303 -382 -361 -97 -31 -282 -33 -375 -5 -128 39 -231 107 -302 201 -60
78 -89 145 -110 251 -29 150 4 300 96 430 54 76 101 118 194 171 128 72 314
93 471 53z m-7859 -12 c132 -39 224 -109 272 -206 26 -52 28 -66 28 -172 0
-106 -2 -120 -29 -178 -39 -84 -106 -142 -211 -184 -78 -31 -84 -32 -277 -36
l-198 -4 0 -159 0 -159 -105 0 -105 0 0 561 0 561 288 -5 c212 -3 300 -8 337
-19z m5490 0 c130 -39 222 -108 270 -205 28 -54 30 -65 30 -173 0 -107 -2
-119 -29 -174 -53 -108 -137 -172 -271 -206 -63 -16 -111 -20 -247 -20 l-168
0 0 -160 0 -160 -105 0 -105 0 0 561 0 561 288 -5 c214 -3 300 -8 337 -19z
m1150 -3 c121 -34 223 -114 267 -210 19 -43 22 -67 23 -165 0 -111 -1 -118
-33 -182 -34 -69 -83 -118 -152 -153 -19 -10 -36 -19 -38 -20 -3 -3 68 -106
237 -346 13 -18 10 -19 -101 -19 l-114 0 -109 160 -110 160 -147 0 -148 0 0
-160 0 -160 -107 0 -108 0 3 561 2 561 288 -5 c230 -4 299 -8 347 -22z m-4033
-152 l3 -98 113 -3 112 -3 0 -79 0 -80 -115 0 -115 0 0 -207 c0 -115 5 -225
11 -246 19 -69 94 -95 179 -61 23 9 42 15 44 13 1 -2 13 -29 25 -59 13 -30 25
-61 28 -67 3 -8 -15 -23 -48 -38 -44 -20 -69 -25 -140 -25 -110 0 -170 20
-225 76 -67 66 -74 105 -74 381 l0 233 -70 0 -70 0 0 80 0 80 70 0 70 0 0 100
0 100 100 0 99 0 3 -97z m-761 -93 c88 -16 177 -67 215 -123 55 -80 58 -97 61
-424 l4 -303 -95 0 -96 0 0 46 0 46 -42 -36 c-23 -20 -65 -43 -93 -52 -62 -18
-195 -19 -255 -1 -164 50 -241 207 -170 347 56 110 175 150 443 150 119 0 117
-1 97 71 -12 42 -51 82 -102 103 -77 33 -222 14 -316 -41 -24 -14 -45 -23 -46
-21 -2 1 -19 34 -39 72 -34 64 -35 70 -19 83 89 69 309 110 453 83z m1704 -15
c81 -27 155 -83 202 -153 51 -75 72 -140 80 -244 l6 -78 -342 -2 -342 -3 28
-55 c32 -63 92 -114 156 -131 23 -6 78 -9 122 -7 84 5 130 21 176 65 l26 24
52 -57 c28 -32 51 -63 51 -70 0 -17 -54 -61 -109 -88 -73 -37 -147 -49 -262
-44 -125 6 -194 30 -282 97 -53 39 -69 59 -105 131 -37 73 -44 97 -49 165 -9
138 29 247 124 346 56 59 133 102 215 119 60 13 194 5 253 -15z m965 1 c30 -9
72 -23 92 -32 l37 -17 -39 -77 -39 -78 -49 24 c-102 48 -269 53 -336 9 -29
-19 -42 -65 -26 -94 17 -33 55 -47 200 -75 171 -33 249 -69 284 -129 76 -132
13 -286 -141 -347 -86 -34 -279 -40 -389 -12 -88 22 -184 62 -184 76 0 7 65
131 76 144 1 2 21 -6 44 -18 141 -72 358 -78 410 -12 55 70 1 114 -175 141
-244 38 -329 103 -329 250 1 138 96 230 274 265 46 9 234 -3 290 -18z m-3820
-411 l0 -425 -105 0 -105 0 0 425 0 425 105 0 105 0 0 -425z m-1264 -705 c7 0
25 -23 40 -51 23 -47 27 -50 38 -33 7 11 18 33 25 50 10 26 19 33 47 36 19 2
34 0 34 -4 0 -5 -20 -49 -45 -98 -39 -79 -45 -98 -45 -154 0 -65 0 -65 -27
-63 -27 2 -28 4 -34 82 -5 69 -11 90 -46 155 -41 73 -45 97 -16 86 8 -3 21 -6
29 -6z m681 -16 c53 -40 68 -71 68 -139 0 -49 -5 -70 -21 -92 -72 -98 -205
-99 -276 -3 -57 77 -22 206 67 246 41 20 129 13 162 -12z m560 15 c15 -6 36
-18 46 -26 16 -16 16 -17 -5 -40 -20 -21 -23 -22 -39 -7 -27 24 -103 30 -134
10 -41 -27 -59 -72 -46 -117 23 -77 110 -105 168 -54 l28 24 -47 1 c-47 0 -48
1 -48 30 l0 31 83 -3 82 -3 -3 -30 c-5 -43 -32 -86 -73 -113 -29 -20 -44 -23
-95 -20 -106 7 -171 79 -162 180 9 88 75 148 164 148 29 0 65 -5 81 -11z m561
-157 c33 -84 57 -154 53 -156 -22 -13 -57 3 -70 32 -14 31 -16 32 -78 32 -62
0 -63 -1 -77 -34 -11 -27 -19 -33 -42 -31 -37 2 -37 2 31 174 49 124 56 137
82 142 15 3 31 3 35 0 4 -3 33 -75 66 -159z m1430 -1 c-3 -168 1 -157 -53
-152 -13 1 -15 25 -15 155 0 153 0 155 23 158 47 8 48 5 45 -161z m322 33 l0
-124 46 0 c45 0 45 0 42 -32 l-3 -33 -70 0 -70 0 -3 154 c-3 161 0 174 39 164
17 -5 19 -16 19 -129z m511 88 c6 -19 31 -85 55 -146 25 -61 42 -116 40 -123
-10 -24 -50 -8 -65 25 -14 31 -17 32 -77 32 -60 0 -63 -1 -83 -35 -19 -33 -47
-42 -66 -23 -6 6 101 283 116 304 5 6 22 9 38 6 24 -3 33 -11 42 -40z m497 7
c-2 -18 -10 -25 -30 -27 l-28 -3 0 -123 c0 -121 -1 -124 -23 -128 -45 -9 -47
-3 -47 127 0 121 -1 124 -22 127 -17 2 -24 11 -26 30 l-3 27 83 3 c46 2 87 0
91 -3 5 -4 7 -17 5 -30z m804 20 l29 -21 -22 -24 c-20 -22 -24 -22 -39 -9 -9
8 -24 15 -33 15 -35 0 -26 -24 26 -73 66 -62 80 -88 72 -127 -16 -72 -109 -94
-167 -40 l-33 30 24 20 24 21 23 -22 c27 -25 58 -22 62 8 2 15 -10 32 -43 60
-77 63 -94 115 -50 158 31 32 85 33 127 4z m931 12 c11 -1 17 -9 17 -25 0 -23
-5 -25 -47 -28 -44 -3 -48 -5 -51 -30 -3 -27 -2 -28 47 -28 50 0 51 -1 51 -29
0 -28 -2 -30 -47 -33 l-48 -3 -5 -70 c-5 -67 -6 -70 -32 -72 l-28 -2 0 162 0
162 63 -1 c34 -1 70 -2 80 -3z m732 -28 c0 -23 -5 -29 -27 -31 l-28 -3 0 -125
c0 -68 -3 -124 -7 -125 -5 0 -18 -2 -30 -5 -23 -4 -23 -3 -23 125 l0 130 -27
3 c-22 2 -29 9 -31 30 -3 24 1 27 30 30 18 2 58 2 88 1 53 -1 55 -2 55 -30z
m364 -67 l66 -99 3 94 c3 95 9 110 43 102 18 -5 19 -15 17 -162 l-3 -156 -29
2 c-16 1 -33 8 -37 15 -4 7 -31 50 -61 96 l-53 83 -5 -98 -5 -98 -27 -2 -28
-2 0 162 0 162 27 0 c22 0 36 -15 92 -99z m559 95 c19 -1 23 -6 20 -28 -3 -27
-6 -28 -58 -29 -52 -1 -55 -2 -58 -27 -3 -27 -3 -27 57 -27 61 0 61 0 61 -30
0 -28 -1 -29 -57 -32 l-58 -3 -3 -37 -3 -38 61 0 61 0 -3 -32 -3 -33 -75 -1
c-41 -1 -81 1 -87 4 -10 3 -13 44 -13 157 l0 154 28 3 c15 2 45 2 67 1 22 -1
50 -2 63 -2z m415 -14 l29 -22 -22 -20 c-20 -18 -22 -18 -49 -2 -26 15 -30 15
-42 1 -11 -14 -4 -24 49 -73 57 -53 62 -61 62 -100 0 -59 -33 -91 -93 -91 -33
0 -51 6 -71 25 -31 29 -33 46 -5 63 18 12 23 11 36 -8 10 -14 23 -20 41 -18
46 5 38 34 -27 96 -53 50 -61 62 -61 94 0 71 92 104 153 55z m417 8 c33 -17
38 -36 14 -56 -12 -10 -20 -10 -35 -1 -25 16 -59 15 -59 -1 0 -7 27 -39 60
-70 54 -52 60 -62 60 -98 0 -57 -34 -89 -95 -89 -35 0 -52 6 -70 25 -31 30
-31 46 -4 63 18 12 24 11 41 -8 11 -12 29 -20 41 -18 41 6 31 36 -32 96 -51
48 -61 63 -61 92 0 69 70 101 140 65z m-5895 -20 c55 -54 20 -141 -62 -154
l-38 -6 -5 -65 c-5 -61 -6 -65 -30 -65 l-25 1 -3 157 -3 157 71 0 c62 0 74 -3
95 -25z m2083 -2 c-3 -26 -6 -28 -53 -29 -46 -1 -50 -2 -53 -27 -3 -26 -2 -27
52 -27 56 0 56 0 56 -30 0 -30 -1 -30 -55 -30 l-55 0 0 -40 0 -40 56 0 55 0
-3 -32 -3 -33 -85 0 -85 0 -3 158 -3 157 91 0 91 0 -3 -27z m1650 -130 c-3
-172 1 -161 -58 -154 -6 1 -10 60 -10 156 l0 155 35 0 36 0 -3 -157z m-4279
71 c45 -57 12 -124 -59 -124 -47 0 -74 28 -74 77 0 69 90 101 133 47z m3481 6
c13 -13 20 -33 20 -60 0 -34 -5 -43 -31 -59 -58 -36 -137 11 -125 74 12 61 93
88 136 45z"/>
<path d="M8890 2400 c-243 -58 -372 -325 -267 -554 126 -275 539 -297 690 -36
88 152 70 341 -46 476 -81 93 -250 144 -377 114z"/>
<path d="M870 2180 l0 -220 164 0 c170 0 203 6 268 47 49 30 70 73 76 154 3
51 0 75 -16 111 -42 97 -128 128 -349 128 l-143 0 0 -220z"/>
<path d="M6360 2180 l0 -222 178 4 c167 3 179 4 221 28 71 40 102 87 108 163
9 109 -29 176 -123 219 -43 20 -69 23 -216 26 l-168 4 0 -222z"/>
<path d="M7502 2179 l3 -224 109 -3 c272 -7 380 47 393 197 11 116 -23 178
-122 223 -44 20 -69 23 -218 26 l-167 4 2 -223z"/>
<path d="M2905 1806 c-59 -26 -83 -75 -65 -131 35 -107 239 -111 330 -7 36 40
40 50 40 98 l0 54 -137 0 c-92 -1 -148 -5 -168 -14z"/>
<path d="M4620 2151 c-86 -27 -155 -95 -174 -173 l-6 -28 240 0 c235 0 240 0
240 20 0 33 -36 94 -74 128 -56 49 -159 73 -226 53z"/>
<path d="M1250 1117 c-30 -23 -50 -62 -50 -95 0 -48 54 -102 102 -102 97 0
141 122 67 184 -33 28 -92 35 -119 13z"/>
<path d="M2407 1048 c-22 -58 -22 -58 19 -58 38 0 39 2 9 73 l-12 28 -16 -43z"/>
<path d="M4716 1056 c-24 -57 -21 -66 20 -66 39 0 39 3 9 75 l-12 30 -17 -39z"/>
<path d="M3507 1123 c-4 -3 -7 -19 -7 -35 0 -27 3 -29 33 -26 43 4 52 43 12
58 -31 12 -30 12 -38 3z"/>
</g>
</svg>
